<svg id="Capa_1" enable-background="new 0 0 512 512" height="512" viewBox="0 0 512 512" width="512" xmlns="http://www.w3.org/2000/svg"><g><path d="m396 81.818h-280c-8.284 0-15 6.716-15 15v100.182c0 8.284 6.716 15 15 15h280c8.284 0 15-6.716 15-15v-100.182c0-8.284-6.716-15-15-15z" fill="#07485e"/><path d="m396 81.818h-140v130.182h140c8.284 0 15-6.716 15-15v-100.182c0-8.284-6.716-15-15-15z" fill="#04303e"/><g><path d="m101 197h310v60h-310z" fill="#ffda44"/></g><path d="m256 197h155v60h-155z" fill="#ff9f22"/><g><path d="m457 504.5h-382c-33.137 0-60-26.863-60-60 0-33.137 26.863-60 60-60h382c-5.072 6.762-20 28.453-20 60 0 8.453 1.072 34.762 20 60z" fill="#fff5f5"/><path d="m437 444.5c0-31.547 14.928-53.238 20-60h-201v120h201c-18.928-25.238-20-51.547-20-60z" fill="#fcf7ca"/><path d="m67.5 429.5h370.649c-.722 4.71-1.149 9.713-1.149 15 0 3.014.141 8.305 1.174 15h-370.674c-8.284 0-15-6.716-15-15s6.716-15 15-15z" fill="#fcf7ca"/><path d="m437 444.5c0-5.287.427-10.29 1.149-15h-182.149v30h182.174c-1.033-6.695-1.174-11.986-1.174-15z" fill="#ffe89c"/><path d="m456.983 512h-389.483c-37.279 0-67.5-30.221-67.5-67.5 0-37.279 30.221-67.5 67.5-67.5h389.5c8.284 0 15 6.716 15 15 0 8.284-6.716 15-15 15h-389.5c-20.711 0-37.5 16.789-37.5 37.5 0 20.711 16.789 37.5 37.5 37.5h389.483c8.284 0 15 6.716 15 15 0 8.284-6.716 15-15 15z" fill="#46f8ff"/></g><g><path d="m55 249.5h382c33.137 0 60 26.863 60 60 0 33.137-26.863 60-60 60h-382c5.072-6.762 20-28.453 20-60 0-8.453-1.072-34.762-20-60z" fill="#fff5f5"/><path d="m437 249.5h-181v120h181c33.137 0 60-26.863 60-60s-26.863-60-60-60z" fill="#fcf7ca"/><path d="m444.5 324.5h-370.649c.722-4.71 1.149-9.713 1.149-15 0-3.014-.141-8.305-1.174-15h370.674c8.284 0 15 6.716 15 15s-6.716 15-15 15z" fill="#fcf7ca"/><g><path d="m444.5 294.5h-188.5v30h188.5c8.284 0 15-6.716 15-15s-6.716-15-15-15z" fill="#ffe89c"/></g><path d="m55.017 242h389.483c37.279 0 67.5 30.221 67.5 67.5 0 37.279-30.221 67.5-67.5 67.5h-389.5c-8.284 0-15-6.716-15-15 0-8.284 6.716-15 15-15h389.5c20.711 0 37.5-16.789 37.5-37.5 0-20.711-16.789-37.5-37.5-37.5h-389.483c-8.284 0-15-6.716-15-15 0-8.284 6.716-15 15-15z" fill="#ff7037"/><path d="m444.5 242h-188.5v30h188.5c20.711 0 37.5 16.789 37.5 37.5 0 20.711-16.789 37.5-37.5 37.5h-188.5v30h188.5c37.279 0 67.5-30.221 67.5-67.5 0-37.279-30.221-67.5-67.5-67.5z" fill="#ff2828"/></g><g><path d="m32.053 89.471 220 60c2.584.705 5.31.705 7.894 0l220-60c14.738-4.019 14.738-24.924 0-28.943l-220-60c-2.584-.705-5.31-.705-7.894 0l-220 60z" fill="#0b799d"/><path d="m479.947 60.529-220-60c-1.292-.353-2.62-.529-3.947-.529v150c1.327 0 2.655-.176 3.947-.529l220-60c14.737-4.019 14.737-24.923 0-28.942z" fill="#07485e"/><g><path d="m457 407c8.284 0 15-6.716 15-15s-6.716-15-15-15h-201v30z" fill="#2fc0f0"/></g><g><path d="m457 512c8.284 0 15-6.716 15-15s-6.716-15-15-15h-201v30z" fill="#2fc0f0"/></g><g><path d="m256 60h-220c-8.284 0-15 6.716-15 15v100c0 8.284 6.716 15 15 15s15-6.716 15-15v-85h205c8.284 0 15-6.716 15-15s-6.716-15-15-15z" fill="#ffda44"/></g><path d="m256 90c8.284 0 15-6.716 15-15s-6.716-15-15-15z" fill="#ff9f22"/></g></g></svg>